Coordinates
version=1
nRows=43
nColumns=12
inDegrees=yes

Units are S.I. units (second, meters, Newtons, ...)
Angles are in degrees

endheader
time	SC_y	SC_z	SC_x	AC_y	AC_z	AC_x	GH_y	GH_z	GH_yy	EL_x	PS_y
       0.0              -46.86           14.6          78.82          50.65        -0.2763           18.6          126.0          89.18         -48.27          86.44          125.7
   0.01567              -46.85          14.59          78.81          50.65        -0.2785           18.6          126.0          89.17         -48.28          86.44          125.7
   0.03134              -46.85          14.59          78.81          50.65        -0.2809          18.59          125.9          89.16         -48.29          86.44          125.7
   0.04701              -46.84          14.59           78.8          50.65        -0.2834          18.59          125.9          89.15          -48.3          86.44          125.7
   0.06268              -46.84          14.59          78.79          50.65        -0.2861          18.58          125.8          89.14         -48.32          86.44          125.7
   0.07835              -46.83          14.59          78.79          50.64        -0.2889          18.57          125.8          89.13         -48.33          86.44          125.7
   0.09402              -46.82          14.59          78.78          50.64         -0.292          18.57          125.7          89.12         -48.34          86.44          125.7
    0.1097              -46.81          14.59          78.78          50.64        -0.2952          18.56          125.7          89.11         -48.36          86.44          125.7
    0.1254              -46.81          14.59          78.77          50.64        -0.2987          18.55          125.6           89.1         -48.38          86.44          125.7
     0.141               -46.8          14.59          78.76          50.63        -0.3025          18.54          125.5          89.09          -48.4          86.44          125.7
    0.1567              -46.79          14.59          78.75          50.63        -0.3065          18.53          125.5          89.07         -48.42          86.44          125.7
    0.1724              -46.78          14.59          78.74          50.63        -0.3109          18.52          125.4          89.06         -48.44          86.45          125.7
     0.188              -46.77          14.59          78.73          50.62        -0.3155          18.51          125.3          89.04         -48.46          86.45          125.7
    0.2037              -46.76          14.59          78.72          50.62        -0.3206           18.5          125.2          89.02         -48.48          86.45          125.7
    0.2194              -46.75          14.59          78.71          50.62         -0.326          18.49          125.1           89.0         -48.51          86.45          125.7
     0.235              -46.73          14.59           78.7          50.61         -0.332          18.47          125.0          88.98         -48.54          86.45          125.7
    0.2507              -46.72          14.59          78.69          50.61        -0.3384          18.46          124.9          88.96         -48.57          86.45          125.7
    0.2664               -46.7          14.59          78.67           50.6        -0.3454          18.44          124.8          88.93         -48.61          86.45          125.7
     0.282              -46.69          14.59          78.66           50.6        -0.3531          18.42          124.6          88.91         -48.64          86.45          125.7
    0.2977              -46.67          14.59          78.64          50.59        -0.3614           18.4          124.5          88.88         -48.68          86.46          125.7
    0.3134              -46.65          14.58          78.62          50.58        -0.3707          18.38          124.3          88.85         -48.73          86.46          125.7
    0.3291              -46.62          14.58           78.6          50.57        -0.3808          18.36          124.1          88.81         -48.78          86.46          125.7
    0.3447               -46.6          14.58          78.58          50.57         -0.392          18.33          123.9          88.77         -48.83          86.46          125.7
    0.3604              -46.57          14.58          78.55          50.56        -0.4044           18.3          123.7          88.73         -48.89          86.47          125.7
    0.3761              -46.54          14.58          78.52          50.55        -0.4182          18.27          123.4          88.68         -48.96          86.47          125.7
    0.3917              -46.51          14.58          78.49          50.53        -0.4335          18.24          123.1          88.62         -49.04          86.47          125.6
    0.4074              -46.47          14.58          78.45          50.52        -0.4508           18.2          122.8          88.56         -49.12          86.48          125.6
    0.4231              -46.43          14.57          78.41          50.51        -0.4702          18.15          122.4           88.5         -49.22          86.48          125.6
    0.4387              -46.38          14.57          78.37          50.49        -0.4921           18.1          122.0          88.42         -49.32          86.48          125.6
    0.4544              -46.32          14.57          78.32          50.47        -0.5169          18.04          121.6          88.33         -49.44          86.49          125.6
    0.4701              -46.26          14.57          78.26          50.45        -0.5453          17.97          121.1          88.23         -49.58           86.5          125.6
    0.4857              -46.19          14.56          78.19          50.43        -0.5779           17.9          120.5          88.12         -49.74           86.5          125.6
    0.5014               -46.1          14.56          78.11           50.4        -0.6155          17.81          119.8          87.98         -49.93          86.51          125.6
    0.5171              -46.01          14.55          78.02          50.36        -0.6592          17.71          119.0          87.83         -50.14          86.52          125.6
    0.5328              -45.89          14.55          77.92          50.33        -0.7103          17.59          118.0          87.65         -50.39          86.53          125.6
    0.5484              -45.76          14.54          77.79          50.28        -0.7706          17.45          116.9          87.44         -50.68          86.54          125.5
    0.5641               -45.6          14.53          77.64          50.23        -0.8422          17.28          115.6          87.19         -51.03          86.56          125.5
    0.5798              -45.41          14.52          77.47          50.16        -0.9281          17.08          114.0          86.89         -51.45          86.58          125.5
    0.5954              -45.18          14.51          77.25          50.08         -1.032          16.84          112.1          86.52         -51.96           86.6          125.4
    0.6111               -44.9           14.5          76.99          49.99         -1.159          16.54          109.7          86.07         -52.58          86.62          125.4
    0.6268              -44.55          14.48          76.66          49.87         -1.315          16.18          106.8          85.52         -53.35          86.66          125.3
    0.6424              -44.11          14.46          76.26          49.72         -1.511          15.72          103.2          84.84          -54.3           86.7          125.3
    0.6581              -43.57          14.43          75.75          49.54         -1.757          15.15          98.68          83.97          -55.5          86.75          125.2
